<svg width="24" height="24" viewBox="0 0 24 24" fill="none" xmlns="http://www.w3.org/2000/svg">
<line x1="15.5" y1="24" x2="15.5" y2="20" stroke="#FF5C21"/>
<line x1="8.5" y1="24" x2="8.5" y2="20" stroke="#FF5C21"/>
<line x1="14.5" y1="22" x2="14.5" y2="19" stroke="#FF5C21"/>
<line x1="9.5" y1="22" x2="9.5" y2="19" stroke="#FF5C21"/>
<line x1="12.5" y1="21" x2="12.5" y2="18" stroke="#FF5C21"/>
<line x1="11.5" y1="21" x2="11.5" y2="18" stroke="#FF5C21"/>
<line x1="12.5" y1="18" x2="12.5" y2="-2.18557e-08" stroke="#FF5C21"/>
<line x1="13.5" y1="18" x2="13.5" y2="2" stroke="#FF5C21"/>
<line x1="14.5" y1="18" x2="14.5" y2="8" stroke="#FF5C21"/>
<line x1="15.5" y1="14" x2="15.5" y2="11" stroke="#FF5C21"/>
<line x1="17.5" y1="18" x2="17.5" y2="13" stroke="#FF5C21"/>
<line x1="16.5" y1="18" x2="16.5" y2="12" stroke="#FF5C21"/>
<line x1="7.5" y1="18" x2="7.5" y2="12" stroke="#FF5C21"/>
<line x1="18.5" y1="18" x2="18.5" y2="14" stroke="#FF5C21"/>
<line x1="19.5" y1="18" x2="19.5" y2="15" stroke="#FF5C21"/>
<line x1="20.5" y1="18" x2="20.5" y2="16" stroke="#FF5C21"/>
<line x1="11.5" y1="18" x2="11.5" y2="-2.18557e-08" stroke="#FF5C21"/>
<line x1="10.5" y1="18" x2="10.5" y2="2" stroke="#FF5C21"/>
<line x1="9.5" y1="18" x2="9.5" y2="8" stroke="#FF5C21"/>
<line x1="8.5" y1="14" x2="8.5" y2="11" stroke="#FF5C21"/>
<line x1="6.5" y1="18" x2="6.5" y2="13" stroke="#FF5C21"/>
<line x1="5.5" y1="18" x2="5.5" y2="14" stroke="#FF5C21"/>
<line x1="4.5" y1="18" x2="4.5" y2="15" stroke="#FF5C21"/>
<line x1="3.5" y1="18" x2="3.5" y2="16" stroke="#FF5C21"/>
</svg>
