<svg width="28" height="28" viewBox="0 0 28 28" fill="none" xmlns="http://www.w3.org/2000/svg">
<g clip-path="url(#clip0_156_109140)">
<path d="M6 15.0417C6.18964 16.4813 6.76935 17.8424 7.67695 18.979C8.58456 20.1156 9.78582 20.9848 11.1519 21.4933C12.518 22.0019 13.9974 22.1307 15.4314 21.8658C16.8654 21.601 18.1999 20.9525 19.2919 19.9899C20.3838 19.0274 21.192 17.7871 21.6297 16.402C22.0674 15.017 22.1181 13.5395 21.7764 12.1279C21.4347 10.7163 20.7135 9.42398 19.6901 8.38946C18.6668 7.35493 17.3798 6.61726 15.9673 6.25555C12.0517 5.25577 7.99848 7.26234 6.50213 11.0015" stroke="white" stroke-width="1.5" stroke-linecap="round" stroke-linejoin="round"/>
<path d="M6 5V11H12" stroke="white" stroke-width="1.5" stroke-linecap="round" stroke-linejoin="round"/>
</g>
<defs>
<clipPath id="clip0_156_109140">
<rect width="28" height="28" fill="white" transform="matrix(-1 0 0 1 28 0)"/>
</clipPath>
</defs>
</svg>
