<svg width="30" height="26" viewBox="0 0 30 26" fill="none" xmlns="http://www.w3.org/2000/svg">
<path d="M21.5 0.5V2.5H22.5V8.5H23.5V11.5H24.5V12.5H25.5V13.5H26.5V14.5H27.5V15.5H28.5V16.5H29.5V19.5H23.5V20.5H24.5V25.5H22.5V23.5H21.5V22.5H18.5V23.5H17.5V25.5H15.5V20.5H16.5V19.5H10.5V16.5H11.5V15.5H12.5V14.5H13.5V13.5H14.5V12.5H15.5V11.5H16.5V8.5H17.5V2.5H18.5V0.5H21.5Z" fill="#FF5C21" stroke="#242424"/>
<path d="M16.5 0.5V2.5H17.5V8.5H18.5V11.5H19.5V12.5H20.5V13.5H21.5V14.5H22.5V15.5H23.5V16.5H24.5V19.5H18.5V20.5H19.5V25.5H17.5V23.5H16.5V22.5H13.5V23.5H12.5V25.5H10.5V20.5H11.5V19.5H5.5V16.5H6.5V15.5H7.5V14.5H8.5V13.5H9.5V12.5H10.5V11.5H11.5V8.5H12.5V2.5H13.5V0.5H16.5Z" fill="#FF5C21" stroke="#242424"/>
<path d="M11.5 0.5V2.5H12.5V8.5H13.5V11.5H14.5V12.5H15.5V13.5H16.5V14.5H17.5V15.5H18.5V16.5H19.5V19.5H13.5V20.5H14.5V25.5H12.5V23.5H11.5V22.5H8.5V23.5H7.5V25.5H5.5V20.5H6.5V19.5H0.5V16.5H1.5V15.5H2.5V14.5H3.5V13.5H4.5V12.5H5.5V11.5H6.5V8.5H7.5V2.5H8.5V0.5H11.5Z" fill="#FF5C21" stroke="#242424"/>
</svg>
