<svg width="30" height="30" viewBox="0 0 30 30" fill="none" xmlns="http://www.w3.org/2000/svg">
<path d="M14 0H16V8H14V0Z" fill="#FF5C21"/>
<path d="M14 22H16V30H14V22Z" fill="#FF5C21"/>
<path d="M8 14V16H0L8.74229e-08 14H8Z" fill="#FF5C21"/>
<path d="M30 14V16H22V14H30Z" fill="#FF5C21"/>
<path d="M16 14V16H14V14H16Z" fill="#FF5C21"/>
<path d="M4 2V4H2L2 2L4 2Z" fill="#FF5C21"/>
<path d="M8 6V8H6V6H8Z" fill="#FF5C21"/>
<path d="M6 4V6H4V4H6Z" fill="#FF5C21"/>
<path d="M4 26V28H2L2 26H4Z" fill="#FF5C21"/>
<path d="M8 22V24H6V22H8Z" fill="#FF5C21"/>
<path d="M6 24V26H4V24H6Z" fill="#FF5C21"/>
<path d="M28 2V4H26V2L28 2Z" fill="#FF5C21"/>
<path d="M24 6V8H22V6H24Z" fill="#FF5C21"/>
<path d="M26 4V6H24V4H26Z" fill="#FF5C21"/>
<path d="M28 26V28H26V26H28Z" fill="#FF5C21"/>
<path d="M24 22V24H22V22H24Z" fill="#FF5C21"/>
<path d="M26 24V26H24V24H26Z" fill="#FF5C21"/>
</svg>
