<svg width="24" height="24" viewBox="0 0 24 24" fill="none" xmlns="http://www.w3.org/2000/svg">
<rect width="15" height="2" transform="matrix(-1 0 0 1 17 14)" fill="#E043FF"/>
<rect width="15" height="2" transform="matrix(-1 0 0 1 18 12)" fill="#E043FF"/>
<rect width="15" height="2" transform="matrix(-1 0 0 1 19 10)" fill="#E043FF"/>
<rect width="15" height="2" transform="matrix(-1 0 0 1 20 8)" fill="#E043FF"/>
<rect width="15" height="2" transform="matrix(-1 0 0 1 21 6)" fill="#E043FF"/>
<rect width="15" height="2" transform="matrix(-1 0 0 1 22 4)" fill="#E043FF"/>
<rect width="15" height="2" transform="matrix(-1 0 0 1 23 2)" fill="#E043FF"/>
<rect width="15" height="2" transform="matrix(-1 0 0 1 24 0)" fill="#E043FF"/>
<rect width="15" height="2" transform="matrix(-1 0 0 1 16 16)" fill="#E043FF"/>
<rect width="15" height="2" transform="matrix(-1 0 0 1 15 18)" fill="#E043FF"/>
<rect width="15" height="3" transform="matrix(-1 0 0 1 15 21)" fill="#E043FF"/>
</svg>
