<svg width="44" height="26" viewBox="0 0 44 26" fill="none" xmlns="http://www.w3.org/2000/svg">
<path d="M21.5 15.5H10.5V10.5H19.5V8.5H18.5V6.5H17.5V4.5H16.5V2.5H14.5V0.5H28.5V1.5H29.5V3.5H30.5V5.5H31.5V7.5H32.5V10.5H43.5V15.5H34.5V17.5H35.5V19.5H36.5V21.5H37.5V23.5H39.5V25.5H25.5V24.5H24.5V22.5H23.5V20.5H22.5V18.5H21.5V15.5Z" fill="#E043FF" stroke="#242424"/>
<path d="M16.5 15.5H5.5V10.5H14.5V8.5H13.5V6.5H12.5V4.5H11.5V2.5H9.5V0.5H23.5V1.5H24.5V3.5H25.5V5.5H26.5V7.5H27.5V10.5H38.5V15.5H29.5V17.5H30.5V19.5H31.5V21.5H32.5V23.5H34.5V25.5H20.5V24.5H19.5V22.5H18.5V20.5H17.5V18.5H16.5V15.5Z" fill="#E043FF" stroke="#242424"/>
<path d="M11.5 15.5H0.5V10.5H9.5V8.5H8.5V6.5H7.5V4.5H6.5V2.5H4.5V0.5H18.5V1.5H19.5V3.5H20.5V5.5H21.5V7.5H22.5V10.5H33.5V15.5H24.5V17.5H25.5V19.5H26.5V21.5H27.5V23.5H29.5V25.5H15.5V24.5H14.5V22.5H13.5V20.5H12.5V18.5H11.5V15.5Z" fill="#E043FF" stroke="#242424"/>
</svg>
