<svg width="38" height="26" viewBox="0 0 38 26" fill="none" xmlns="http://www.w3.org/2000/svg">
<path d="M12.5 18.5H13.5V16.5H14.5V14.5H15.5V12.5H16.5V10.5H17.5V8.5H18.5V6.5H19.5V4.5H20.5V2.5H21.5V0.5H37.5V3.5H36.5V5.5H35.5V7.5H34.5V9.5H33.5V11.5H32.5V13.5H31.5V15.5H30.5V17.5H29.5V19.5H28.5V25.5H12.5V18.5Z" fill="#E043FF" stroke="#242424"/>
<path d="M6.5 18.5H7.5V16.5H8.5V14.5H9.5V12.5H10.5V10.5H11.5V8.5H12.5V6.5H13.5V4.5H14.5V2.5H15.5V0.5H31.5V3.5H30.5V5.5H29.5V7.5H28.5V9.5H27.5V11.5H26.5V13.5H25.5V15.5H24.5V17.5H23.5V19.5H22.5V25.5H6.5V18.5Z" fill="#E043FF" stroke="#242424"/>
<path d="M0.5 18.5H1.5V16.5H2.5V14.5H3.5V12.5H4.5V10.5H5.5V8.5H6.5V6.5H7.5V4.5H8.5V2.5H9.5V0.5H25.5V3.5H24.5V5.5H23.5V7.5H22.5V9.5H21.5V11.5H20.5V13.5H19.5V15.5H18.5V17.5H17.5V19.5H16.5V25.5H0.5V18.5Z" fill="#E043FF" stroke="#242424"/>
</svg>
